<?xml version="1.0" encoding="UTF-8" standalone="no"?>
<!-- Created with Inkscape (http://www.inkscape.org/) -->

<svg
   xmlns:dc="http://purl.org/dc/elements/1.1/"
   xmlns:cc="http://creativecommons.org/ns#"
   xmlns:rdf="http://www.w3.org/1999/02/22-rdf-syntax-ns#"
   xmlns:svg="http://www.w3.org/2000/svg"
   xmlns="http://www.w3.org/2000/svg"
   xmlns:xlink="http://www.w3.org/1999/xlink"
   xmlns:sodipodi="http://sodipodi.sourceforge.net/DTD/sodipodi-0.dtd"
   xmlns:inkscape="http://www.inkscape.org/namespaces/inkscape"
   width="64px"
   height="64px"
   id="svg2383"
   sodipodi:version="0.32"
   inkscape:version="0.47pre4 r22446"
   sodipodi:docname="shakespeare.svg"
   inkscape:output_extension="org.inkscape.output.svg.inkscape"
   version="1.1">
  <defs
     id="defs2385">
    <linearGradient
       id="linearGradient3178">
      <stop
         style="stop-color:#ffffff;stop-opacity:1;"
         offset="0"
         id="stop3180" />
      <stop
         style="stop-color:#ffffff;stop-opacity:0;"
         offset="1"
         id="stop3182" />
    </linearGradient>
    <linearGradient
       id="linearGradient3164">
      <stop
         style="stop-color:#000000;stop-opacity:1;"
         offset="0"
         id="stop3166" />
      <stop
         style="stop-color:#000000;stop-opacity:0;"
         offset="1"
         id="stop3168" />
    </linearGradient>
    <inkscape:perspective
       sodipodi:type="inkscape:persp3d"
       inkscape:vp_x="0 : 32 : 1"
       inkscape:vp_y="0 : 1000 : 0"
       inkscape:vp_z="64 : 32 : 1"
       inkscape:persp3d-origin="32 : 21.333333 : 1"
       id="perspective2391" />
    <inkscape:perspective
       id="perspective2400"
       inkscape:persp3d-origin="372.04724 : 350.78739 : 1"
       inkscape:vp_z="744.09448 : 526.18109 : 1"
       inkscape:vp_y="0 : 1000 : 0"
       inkscape:vp_x="0 : 526.18109 : 1"
       sodipodi:type="inkscape:persp3d" />
    <radialGradient
       inkscape:collect="always"
       xlink:href="#linearGradient3164"
       id="radialGradient3170"
       cx="30.91342"
       cy="26.429916"
       fx="30.91342"
       fy="26.429916"
       r="25.709476"
       gradientTransform="matrix(0.2055346,0.2263032,-0.9382205,0.8521174,46.34983,-0.85856)"
       gradientUnits="userSpaceOnUse" />
    <linearGradient
       inkscape:collect="always"
       xlink:href="#linearGradient3178"
       id="linearGradient3269"
       gradientUnits="userSpaceOnUse"
       gradientTransform="matrix(0.6831506,0,0,0.6831506,49.162979,-21.07047)"
       x1="16.322044"
       y1="14.408638"
       x2="39.990997"
       y2="35.158638" />
    <linearGradient
       inkscape:collect="always"
       xlink:href="#linearGradient3178"
       id="linearGradient2472"
       gradientUnits="userSpaceOnUse"
       x1="16.322044"
       y1="14.408638"
       x2="39.990997"
       y2="35.158638" />
    <linearGradient
       inkscape:collect="always"
       xlink:href="#linearGradient3178"
       id="linearGradient2482"
       gradientUnits="userSpaceOnUse"
       x1="16.322044"
       y1="14.408638"
       x2="39.990997"
       y2="35.158638" />
    <radialGradient
       inkscape:collect="always"
       xlink:href="#linearGradient3164"
       id="radialGradient3536"
       gradientUnits="userSpaceOnUse"
       gradientTransform="matrix(1.7034284e-2,0.2642638,-0.9402215,6.0606111e-2,86.907038,59.526807)"
       cx="1.4142151"
       cy="-8.1248951"
       fx="1.4142151"
       fy="-8.1248951"
       r="35.001785" />
    <linearGradient
       inkscape:collect="always"
       xlink:href="#linearGradient3178"
       id="linearGradient3554"
       gradientUnits="userSpaceOnUse"
       gradientTransform="matrix(1.3914455,0.7863309,0.3668055,1.7556749,40.330324,-47.677812)"
       x1="16.322044"
       y1="14.408638"
       x2="39.990997"
       y2="35.158638" />
    <linearGradient
       inkscape:collect="always"
       xlink:href="#linearGradient3178"
       id="linearGradient3557"
       gradientUnits="userSpaceOnUse"
       gradientTransform="matrix(1.3318151,0.7526327,0.3510861,1.6804355,-12.845222,-60.535617)"
       x1="16.322044"
       y1="14.408638"
       x2="39.990997"
       y2="35.158638" />
    <radialGradient
       inkscape:collect="always"
       xlink:href="#linearGradient3164"
       id="radialGradient3574"
       gradientUnits="userSpaceOnUse"
       gradientTransform="matrix(1.7034284e-2,0.2642638,-0.9402215,6.0606111e-2,86.907038,59.526807)"
       cx="1.4142151"
       cy="-8.1248951"
       fx="1.4142151"
       fy="-8.1248951"
       r="35.001785" />
    <linearGradient
       inkscape:collect="always"
       xlink:href="#linearGradient3178"
       id="linearGradient3576"
       gradientUnits="userSpaceOnUse"
       gradientTransform="matrix(1.3318151,0.7526327,0.3510861,1.6804355,-12.845222,-60.535617)"
       x1="16.322044"
       y1="14.408638"
       x2="39.990997"
       y2="35.158638" />
    <linearGradient
       inkscape:collect="always"
       xlink:href="#linearGradient3178"
       id="linearGradient3591"
       gradientUnits="userSpaceOnUse"
       gradientTransform="matrix(1.3318151,0.7526327,0.3510861,1.6804355,-12.845222,-60.535617)"
       x1="16.322044"
       y1="14.408638"
       x2="39.990997"
       y2="35.158638" />
    <linearGradient
       inkscape:collect="always"
       xlink:href="#linearGradient3178"
       id="linearGradient3607"
       x1="5.2235699"
       y1="-8.1976986"
       x2="73.256165"
       y2="59.30344"
       gradientUnits="userSpaceOnUse"
       gradientTransform="matrix(0.9495085,0,0,0.9495085,-15.830873,-2.9336718)" />
    <linearGradient
       inkscape:collect="always"
       xlink:href="#linearGradient3178"
       id="linearGradient3624"
       gradientUnits="userSpaceOnUse"
       gradientTransform="matrix(0.9495085,0,0,0.9495085,-15.830873,-2.9336718)"
       x1="5.2235699"
       y1="-8.1976986"
       x2="73.256165"
       y2="59.30344" />
    <linearGradient
       inkscape:collect="always"
       xlink:href="#linearGradient3178"
       id="linearGradient3631"
       gradientUnits="userSpaceOnUse"
       gradientTransform="matrix(0.9495085,0,0,0.9495085,-14.893373,-2.1211718)"
       x1="17.989174"
       y1="2.5973601"
       x2="37.44817"
       y2="24.943558" />
    <linearGradient
       inkscape:collect="always"
       xlink:href="#linearGradient3178"
       id="linearGradient3728"
       x1="-11.111961"
       y1="-10.243523"
       x2="34.736961"
       y2="32.006477"
       gradientUnits="userSpaceOnUse" />
    <linearGradient
       inkscape:collect="always"
       xlink:href="#linearGradient3178"
       id="linearGradient3733"
       gradientUnits="userSpaceOnUse"
       x1="-13.611961"
       y1="-13.493523"
       x2="22.211323"
       y2="22.981663" />
    <filter
       inkscape:collect="always"
       id="filter3739">
      <feGaussianBlur
         inkscape:collect="always"
         stdDeviation="0.15207031"
         id="feGaussianBlur3741" />
    </filter>
  </defs>
  <sodipodi:namedview
     id="base"
     pagecolor="#ffffff"
     bordercolor="#666666"
     borderopacity="1.0"
     inkscape:pageopacity="0.0"
     inkscape:pageshadow="2"
     inkscape:zoom="5.6489104"
     inkscape:cx="15.987357"
     inkscape:cy="40.084424"
     inkscape:current-layer="layer4"
     showgrid="true"
     inkscape:document-units="px"
     inkscape:grid-bbox="true"
     inkscape:window-width="1280"
     inkscape:window-height="958"
     inkscape:window-x="-4"
     inkscape:window-y="-4"
     showguides="false"
     inkscape:guide-bbox="true"
     inkscape:window-maximized="1">
    <sodipodi:guide
       orientation="0,1"
       position="-69.5,37"
       id="guide3310" />
    <sodipodi:guide
       orientation="0,1"
       position="-89.75,58"
       id="guide3312" />
  </sodipodi:namedview>
  <metadata
     id="metadata2388">
    <rdf:RDF>
      <cc:Work
         rdf:about="">
        <dc:format>image/svg+xml</dc:format>
        <dc:type
           rdf:resource="http://purl.org/dc/dcmitype/StillImage" />
        <dc:title></dc:title>
      </cc:Work>
    </rdf:RDF>
  </metadata>
  <g
     inkscape:groupmode="layer"
     id="layer3"
     inkscape:label="medio"
     style="display:inline" />
  <g
     inkscape:groupmode="layer"
     id="layer4"
     inkscape:label="brillo"
     style="display:inline">
    <rect
       style="fill:#000000;fill-opacity:1;stroke:#8ae234;stroke-width:1.09943962000000006;stroke-linecap:butt;stroke-linejoin:round;stroke-miterlimit:4;stroke-opacity:1;stroke-dasharray:none;stroke-dashoffset:0;display:inline"
       id="rect3429"
       width="62.973923"
       height="62.80669"
       x="0.51303905"
       y="0.60313159"
       ry="11.31981" />
    <g
       id="g3760"
       transform="matrix(1.0278905,-0.1089806,0.1089806,1.0278905,58.342415,-5.657584)">
      <path
         style="fill:#73d216;fill-opacity:1;fill-rule:evenodd;stroke:none"
         d="m -47.08508,48.557661 c 2.85937,-0.04616 3.067378,-0.201162 4.869286,-0.579167 3.139966,-1.017086 8.309359,-2.39799 8.818975,-4.608393 -1.855299,-2.0553 -4.503868,-4.925147 -5.640278,-7.60189 2.92366,2.759909 4.420903,4.690092 7.615397,6.331041 2.630101,-0.399786 5.873854,-4.550734 6.268058,-6.507941 -2.661443,-1.380996 -6.06333,-3.794713 -7.783533,-5.994091 2.442666,1.332043 6.427562,3.12861 10.150322,3.909013 2.321556,-1.617613 7.253871,-7.871306 6.737033,-9.526627 -4.362564,-0.309584 -8.301322,-2.765455 -8.072442,-2.704097 4.078489,1.093353 5.077484,1.479892 9.22355,1.969956 2.949776,-5.679201 7.604739,-8.297725 13.3994767,-12.527172 -6.9475474,1.740623 -8.8917347,1.637911 -14.6611007,0.838186 -2.944457,-0.556632 -5.941776,-0.797117 -8.92379,-1.068259 -1.699661,-0.04396 -4.17845,-0.261046 -4.433814,0.08031 -0.424166,0.01703 0.03627,10.705436 -0.294597,10.468718 -0.283913,-0.118391 -1.110284,-9.920836 -1.335159,-10.016015 -0.285418,-0.480647 -5.022174,1.329292 -5.259196,1.422797 -0.705561,0.152568 -4.31636,2.653053 -4.101349,3.146556 -0.336581,0.0046 2.462969,13.11501 2.104042,12.795561 -0.470726,-0.445448 -2.054053,-4.941449 -2.948508,-8.257311 -0.412512,-1.529238 -0.51983,-3.395086 -0.877803,-3.350292 -0.932253,0.01908 -2.571158,2.314772 -3.275912,3.960116 -1.211927,3.249212 0.538485,9.303415 1.687081,14.273818 -1.395486,-2.501755 -2.600444,-6.48213 -3.200821,-9.126212 -1.654764,1.657111 -1.894589,4.035237 -2.434164,6.260617 -0.462868,2.305747 -0.705978,4.696213 -0.619504,7.213736 0.03871,2.225839 0.03506,4.501739 0.697612,7.220806"
         id="path3743"
         sodipodi:nodetypes="cccccccccsccccccccccsccccccc"
         inkscape:export-filename="/home/dhunter/data/Edicion/iconos/padman/path2411.png"
         inkscape:export-xdpi="300.01001"
         inkscape:export-ydpi="300.01001" />
      <path
         sodipodi:nodetypes="cccccc"
         id="path3745"
         d="m -53.558785,58.69934 c 3.511166,-1.708034 4.977077,-5.642065 5.761504,-9.218361 1.09172,-4.943117 2.633388,-7.324827 5.452914,-11.71961 4.860708,-7.288384 12.484204,-12.319329 18.466075,-18.777339 -11.902165,7.508501 -22.796647,19.302704 -27.214784,32.832578 -0.714661,2.330091 -1.571556,4.615999 -2.465709,6.882732 z"
         style="fill:#8f5902;fill-opacity:1;fill-rule:evenodd;stroke:#2e3436;stroke-width:0.41695869;stroke-linecap:butt;stroke-linejoin:miter;stroke-miterlimit:4;stroke-opacity:1;stroke-dasharray:none" />
    </g>
    <path
       style="fill:url(#linearGradient3733);fill-opacity:1;stroke:none;stroke-width:1.09943962000000006;stroke-linecap:butt;stroke-linejoin:round;stroke-miterlimit:4;stroke-opacity:1;stroke-dasharray:none;stroke-dashoffset:0;display:inline;filter:url(#filter3739);opacity:0.90000000000000002"
       d="M 11.84375 0.59375 C 5.5725753 0.59375 0.5 5.6663253 0.5 11.9375 L 0.5 52.09375 C 0.5 55.496063 2.0139469 58.522111 4.375 60.59375 C 4.3005585 59.465714 4.25 58.334376 4.25 57.1875 C 4.25 28.98646 27.11146 6.125 55.3125 6.125 C 57.633962 6.125 59.916928 6.2936916 62.15625 6.59375 C 60.254174 3.0301479 56.49313 0.59375 52.15625 0.59375 L 11.84375 0.59375 z "
       id="rect3720" />
  </g>
</svg>
